<svg width="51" height="47" viewBox="0 0 51 47" fill="none" xmlns="http://www.w3.org/2000/svg">
<path d="M25.8127 11.3357C18.7344 11.3357 13.025 16.6623 13.025 23.2659C13.025 29.8695 18.7344 35.1961 25.8127 35.1961C32.8911 35.1961 38.6005 29.8695 38.6005 23.2659C38.6005 16.6623 32.8911 11.3357 25.8127 11.3357ZM25.8127 31.0221C21.2385 31.0221 17.499 27.5437 17.499 23.2659C17.499 18.9881 21.2274 15.5097 25.8127 15.5097C30.3981 15.5097 34.1265 18.9881 34.1265 23.2659C34.1265 27.5437 30.3869 31.0221 25.8127 31.0221ZM42.1063 10.8477C42.1063 12.3948 40.7708 13.6304 39.1236 13.6304C37.4653 13.6304 36.1409 12.3844 36.1409 10.8477C36.1409 9.31103 37.4764 8.06506 39.1236 8.06506C40.7708 8.06506 42.1063 9.31103 42.1063 10.8477ZM50.5758 13.6719C50.3866 9.9444 49.474 6.64258 46.547 3.92221C43.631 1.20184 40.0919 0.350429 36.0964 0.163534C31.9785 -0.0545112 19.6359 -0.0545112 15.518 0.163534C11.5336 0.340046 7.99443 1.19146 5.06738 3.91183C2.14033 6.63219 1.23884 9.93402 1.03851 13.6615C0.80479 17.5033 0.80479 29.0181 1.03851 32.8599C1.22771 36.5874 2.14033 39.8892 5.06738 42.6096C7.99443 45.33 11.5225 46.1814 15.518 46.3683C19.6359 46.5863 31.9785 46.5863 36.0964 46.3683C40.0919 46.1917 43.631 45.3403 46.547 42.6096C49.4629 39.8892 50.3755 36.5874 50.5758 32.8599C50.8095 29.0181 50.8095 17.5137 50.5758 13.6719ZM45.2559 36.9819C44.3878 39.017 42.7073 40.5849 40.5148 41.4051C37.2316 42.62 29.4409 42.3396 25.8127 42.3396C22.1845 42.3396 14.3828 42.6096 11.1107 41.4051C8.92931 40.5953 7.24876 39.0274 6.36953 36.9819C5.06738 33.9189 5.36788 26.6508 5.36788 23.2659C5.36788 19.881 5.07851 12.6025 6.36953 9.54984C7.23763 7.51476 8.91818 5.94691 11.1107 5.12665C14.3939 3.91183 22.1845 4.19217 25.8127 4.19217C29.4409 4.19217 37.2427 3.92221 40.5148 5.12665C42.6962 5.93653 44.3767 7.50437 45.2559 9.54984C46.5581 12.6129 46.2576 19.881 46.2576 23.2659C46.2576 26.6508 46.5581 33.9293 45.2559 36.9819Z" fill="white"/>
</svg>
