<svg width="51" height="47" viewBox="0 0 51 47" fill="none" xmlns="http://www.w3.org/2000/svg">
<path d="M25.4708 0C11.6946 0 0.526901 10.4165 0.526901 23.2659C0.526901 36.1153 11.6946 46.5318 25.4708 46.5318C39.247 46.5318 50.4148 36.1153 50.4148 23.2659C50.4148 10.4165 39.247 0 25.4708 0ZM37.0328 15.8227C36.6574 19.5016 35.0331 28.4292 34.2065 32.5497C33.8568 34.2932 33.1683 34.8778 32.5018 34.935C31.0535 35.0594 29.9533 34.0421 28.5503 33.1843C26.3549 31.842 25.1147 31.0064 22.9836 29.6966C20.5209 28.1829 22.1174 27.3512 23.5209 25.9909C23.8882 25.6351 30.2705 20.2204 30.3941 19.7292C30.4094 19.6677 30.4242 19.4384 30.278 19.3179C30.1317 19.1975 29.9169 19.2383 29.7615 19.271C29.5414 19.3177 26.0342 21.4798 19.24 25.7575C18.2446 26.3951 17.3429 26.7057 16.535 26.6895C15.6443 26.6715 13.9312 26.2198 12.6575 25.8336C11.0954 25.36 9.85383 25.1096 9.96195 24.3053C10.0183 23.8862 10.6368 23.4578 11.8177 23.02C19.0894 20.065 23.9383 18.1168 26.3644 17.1754C33.2916 14.4879 34.731 14.0211 35.6692 14.0055C35.8756 14.0023 36.337 14.05 36.6358 14.2762C36.8346 14.4373 36.9613 14.6621 36.9908 14.9062C37.0415 15.2093 37.0555 15.5167 37.0328 15.8227Z" fill="white"/>
</svg>
